<?xml version="1.0" standalone="no"?>
<!DOCTYPE svg PUBLIC "-//W3C//DTD SVG 20010904//EN"
 "http://www.w3.org/TR/2001/REC-SVG-20010904/DTD/svg10.dtd">
<svg version="1.0" xmlns="http://www.w3.org/2000/svg"
 width="554.000000pt" height="554.000000pt" viewBox="0 0 554.000000 554.000000"
 preserveAspectRatio="xMidYMid meet">

<g transform="translate(0.000000,554.000000) scale(0.100000,-0.100000)"
fill="#000000" stroke="none">
<path d="M0 2770 l0 -2770 2770 0 2770 0 0 2560 c0 1700 -3 2560 -10 2560 -5
0 -10 -4 -10 -9 0 -5 -10 -9 -22 -9 -115 -1 -229 -18 -283 -42 -33 -14 -65
-19 -65 -9 0 5 11 9 24 9 14 0 31 7 40 15 8 8 26 15 40 15 14 0 28 5 32 12 4
6 3 8 -4 4 -6 -3 -13 -2 -17 4 -3 5 0 10 7 10 9 0 9 3 -2 10 -9 6 -10 10 -3
10 6 0 14 8 16 18 2 9 3 7 2 -5 -3 -33 20 -49 50 -35 15 7 26 8 30 2 10 -17
22 -11 20 10 -2 27 -25 51 -25 27 0 -9 -7 -17 -15 -17 -8 0 -15 -4 -15 -10 0
-5 -4 -10 -9 -10 -5 0 -1 16 9 36 15 28 16 41 8 65 -5 16 -14 32 -19 35 -18
10 -8 39 16 51 27 12 36 -2 14 -24 -14 -14 -4 -47 12 -38 5 4 14 18 19 31 9
23 12 24 85 17 l75 -6 0 126 0 127 -2770 0 -2770 0 0 -2770z m4390 2740 c0 -5
-4 -10 -10 -10 -5 0 -10 5 -10 10 0 6 5 10 10 10 6 0 10 -4 10 -10z m-40 -30
c0 -5 -4 -10 -10 -10 -5 0 -10 5 -10 10 0 6 5 10 10 10 6 0 10 -4 10 -10z
m823 -135 c-3 -8 -1 -15 5 -15 5 0 7 -11 4 -25 -5 -30 -22 -34 -22 -5 0 28
-14 25 -31 -7 -11 -20 -11 -27 -1 -30 6 -3 12 -9 12 -14 0 -10 -28 -8 -47 4
-16 10 -17 -5 -1 -21 9 -9 7 -12 -11 -12 -24 0 -71 42 -71 63 0 7 19 20 41 29
32 14 40 14 36 3 -9 -21 19 -26 37 -6 9 10 16 22 16 27 0 14 22 34 31 28 5 -2
6 -11 2 -19z m-223 -17 c0 -5 -4 -8 -10 -8 -5 0 -10 10 -10 23 0 18 2 19 10 7
5 -8 10 -18 10 -22z m-25 -18 c15 0 27 -38 14 -46 -5 -3 -13 6 -19 20 -5 14
-14 26 -20 26 -6 0 -8 -4 -5 -10 3 -5 2 -10 -3 -10 -19 0 -21 14 -5 33 16 17
18 17 21 3 2 -9 9 -16 17 -16z m369 -19 c3 -5 -1 -14 -9 -21 -13 -10 -15 -9
-15 9 0 21 14 28 24 12z m-34 -67 c0 -2 -7 -4 -15 -4 -10 0 -15 10 -15 33 l0
32 15 -29 c8 -15 15 -30 15 -32z m-60 39 c0 -5 -5 -15 -10 -23 -7 -11 -12 -12
-21 -3 -6 6 -8 16 -5 22 8 12 36 15 36 4z m86 -49 c-23 -22 -42 -17 -21 6 10
11 22 17 26 14 5 -3 3 -12 -5 -20z m-486 -4 c0 -15 -38 -32 -45 -20 -5 8 17
23 43 29 1 1 2 -3 2 -9z m-1580 -30 c0 -5 -4 -10 -9 -10 -6 0 -13 5 -16 10 -3
6 1 10 9 10 9 0 16 -4 16 -10z m470 -25 c-33 -19 -49 -19 -24 0 10 8 26 14 34
14 9 0 4 -6 -10 -14z m1536 4 c3 -6 1 -15 -6 -19 -7 -4 -9 -13 -6 -19 4 -6 2
-11 -3 -11 -6 0 -11 14 -11 30 0 30 13 40 26 19z m-482 -31 c-7 -12 -44 -10
-44 2 0 6 5 10 11 10 5 0 7 5 4 11 -4 6 2 5 13 -2 12 -7 18 -17 16 -21z m337
15 c12 -15 12 -16 -4 -10 -10 4 -25 7 -33 7 -9 0 -12 5 -9 10 9 15 31 12 46
-7z m-1271 3 c0 -3 -4 -8 -10 -11 -5 -3 -10 -1 -10 4 0 6 5 11 10 11 6 0 10
-2 10 -4z m-25 -36 c-3 -5 -14 -10 -23 -9 -14 0 -13 2 3 9 27 11 27 11 20 0z
m49 -6 c3 -8 10 -12 16 -9 5 3 10 -1 10 -9 0 -9 -3 -16 -7 -16 -12 1 -45 50
-35 50 6 0 13 -7 16 -16z m1286 6 c0 -5 -2 -10 -4 -10 -3 0 -8 5 -11 10 -3 6
-1 10 4 10 6 0 11 -4 11 -10z m-895 -27 c-5 -10 -7 -21 -7 -25 3 -12 -16 -10
-23 2 -3 6 1 13 9 16 9 3 16 13 16 22 0 8 3 13 6 9 4 -3 3 -14 -1 -24z m215
17 c0 -5 -2 -10 -4 -10 -3 0 -8 5 -11 10 -3 6 -1 10 4 10 6 0 11 -4 11 -10z
m-120 -10 c12 -8 11 -10 -7 -10 -13 0 -23 5 -23 10 0 13 11 13 30 0z m144 -4
c-3 -8 -1 -17 5 -21 13 -7 15 -25 4 -25 -20 1 -32 18 -26 38 3 12 9 22 14 22
5 0 6 -6 3 -14z m631 4 c3 -5 -1 -10 -10 -10 -9 0 -13 5 -10 10 3 6 8 10 10
10 2 0 7 -4 10 -10z m-1115 -7 c0 -5 -7 -16 -15 -27 -13 -17 -15 -17 -37 -1
-21 16 -22 16 -2 11 13 -4 26 -1 34 9 14 16 20 19 20 8z m1134 -28 c-4 -8 -12
-15 -20 -15 -20 0 -17 18 4 23 9 3 18 5 19 6 1 0 0 -6 -3 -14z m-1064 -15 c0
-5 -4 -10 -10 -10 -5 0 -10 5 -10 10 0 6 5 10 10 10 6 0 10 -4 10 -10z m22
-42 c-7 -7 -12 -8 -12 -2 0 6 3 14 7 17 3 4 9 5 12 2 2 -3 -1 -11 -7 -17z
m320 -170 c-7 -7 -12 -8 -12 -2 0 6 3 14 7 17 3 4 9 5 12 2 2 -3 -1 -11 -7
-17z m-492 -12 c0 -3 -4 -8 -10 -11 -5 -3 -10 -1 -10 4 0 6 5 11 10 11 6 0 10
-2 10 -4z m-46 -40 c-21 -15 -30 -14 -19 3 3 6 14 11 23 11 13 0 13 -2 -4 -14z
m446 10 c0 -3 -4 -8 -10 -11 -5 -3 -10 -1 -10 4 0 6 5 11 10 11 6 0 10 -2 10
-4z m50 -38 c0 -6 -7 -8 -15 -4 -8 3 -15 0 -15 -6 0 -6 -2 -9 -5 -6 -3 3 -3
12 1 21 6 16 34 12 34 -5z m-783 -60 c-3 -8 -6 -5 -6 6 -1 11 2 17 5 13 3 -3
4 -12 1 -19z m633 -22 c0 -2 -11 -11 -25 -20 -14 -9 -25 -13 -25 -8 0 5 10 14
23 20 27 13 27 13 27 8z m450 -10 c0 -3 -4 -8 -10 -11 -5 -3 -10 -1 -10 4 0 6
5 11 10 11 6 0 10 -2 10 -4z m-1270 -80 c0 -3 -4 -8 -10 -11 -5 -3 -10 -1 -10
4 0 6 5 11 10 11 6 0 10 -2 10 -4z m560 -216 c0 -5 -3 -10 -8 -10 -4 0 -12 -9
-17 -19 -6 -11 -46 -78 -90 -150 -44 -72 -94 -154 -111 -183 -17 -29 -56 -93
-85 -141 l-54 -89 -180 -86 c-191 -92 -397 -191 -635 -305 -80 -38 -201 -96
-270 -129 -69 -33 -175 -84 -236 -113 -62 -30 -116 -59 -120 -67 -23 -35 -104
-234 -100 -244 4 -11 141 -94 156 -94 10 0 266 123 735 355 209 103 432 212
495 242 63 30 136 66 162 79 l47 24 143 -107 c79 -58 187 -138 240 -177 54
-39 97 -75 98 -80 0 -4 -61 -148 -137 -320 -75 -171 -151 -344 -168 -384 -18
-41 -39 -79 -46 -87 -8 -7 -54 -34 -104 -60 -49 -26 -162 -87 -250 -135 -88
-48 -191 -104 -230 -125 -38 -21 -113 -61 -165 -90 -52 -29 -135 -74 -185
-100 -49 -27 -108 -58 -130 -70 -22 -12 -222 -121 -445 -242 -223 -121 -436
-237 -473 -258 -37 -20 -70 -35 -73 -32 -4 3 12 43 33 89 89 186 181 376 223
461 l45 90 500 264 c275 145 556 294 625 330 69 36 159 83 201 105 l76 40 53
116 53 116 -26 20 c-61 50 -115 86 -127 86 -7 0 -71 -31 -144 -69 -248 -130
-841 -438 -1041 -541 -110 -56 -204 -107 -209 -111 -19 -17 -35 -9 -153 76
-65 47 -175 126 -245 176 -71 50 -130 95 -133 99 -5 8 59 192 165 475 26 72
67 179 89 240 23 60 47 114 53 120 7 6 63 34 123 62 61 28 223 104 360 168
138 65 282 132 320 150 39 18 99 46 135 63 78 36 402 189 550 259 58 28 137
65 175 83 89 41 173 80 360 169 151 71 175 79 175 61z m1250 -110 c0 -5 -2
-10 -4 -10 -3 0 -8 5 -11 10 -3 6 -1 10 4 10 6 0 11 -4 11 -10z"/>
<path d="M5040 5271 c0 -6 5 -13 10 -16 6 -3 10 1 10 9 0 9 -4 16 -10 16 -5 0
-10 -4 -10 -9z"/>
<path d="M5386 5261 c-4 -5 -3 -17 1 -27 5 -13 3 -16 -10 -11 -27 10 -18 -6
24 -42 31 -27 39 -30 39 -16 0 10 -8 24 -17 31 -15 12 -16 15 -3 23 8 5 17 8
21 5 4 -2 12 3 19 11 10 12 9 16 -5 21 -11 5 -21 1 -27 -9 -13 -24 -27 -21
-21 3 5 20 -11 28 -21 11z"/>
<path d="M5493 5235 c0 -8 4 -15 9 -15 4 0 8 7 8 15 0 8 -4 15 -8 15 -5 0 -9
-7 -9 -15z"/>
<path d="M5515 5140 c-3 -6 1 -7 9 -4 18 7 21 14 7 14 -6 0 -13 -4 -16 -10z"/>
<path d="M5430 5130 c0 -5 7 -10 15 -10 8 0 15 5 15 10 0 6 -7 10 -15 10 -8 0
-15 -4 -15 -10z"/>
</g>
</svg>
